<?xml version="1.0" encoding="UTF-8" ?><svg width="895.6544523239136" height="746.5999999999998" xmlns="http://www.w3.org/2000/svg" version="1.1" viewBox="-12 -38 895.6544523239136 746.5999999999998"><metadata>title Task-Them
# actors: task, manager, scheduler , idb
group Register task: "All Task muts be registered as the
first call to task manager"
  task -&gt; manager: "Add task by calling add on manager:
manager.add(Task1)"
end

group Initialize taskthem
  user-code -&gt; manager: "Call manager.init() 
to initialize the scheduler"
  manager -&gt; scheduler:"Create Scheduler service worker"
  scheduler -&gt; scheduler : "Calls init method, pulling out
all task which
are not marked as ended=true"
  scheduler -&gt; manager :"call task with current 
state stored in task manager"
end

group Creating task
  user-code -&gt;  manager: create_task(TaskClass, init_data and all other info)
  manager -&gt; scheduler : record initiation
  scheduler -&gt; manager : Instantiate the task and run.
end

group Run task
  scheduler -&gt; manager : Provides current state of Task
  manager -&gt; task : Instantiate and run , by calling task.run(current-state)
  divider tear with height 20: Manager keep running the async task
  manager -&gt; task: will keep runing the task
  task -&gt; manager : record phase
  manager -&gt; scheduler : delegate phase received from task
end

terminators box
theme monospace</metadata><defs></defs><defs><mask id="R2FullMask" maskUnits="userSpaceOnUse"><rect fill="#FFFFFF" height="746.5999999999998" width="895.6544523239136" x="-12" y="-38"></rect><rect fill="#000000" height="14.4" width="178.0123291015625" x="346.82106161117554" y="557.5999999999998"></rect><path d="M-8 555.7999999999998L-6 553.7999999999998L-4 555.7999999999998L-2 553.7999999999998L0 555.7999999999998L2 553.7999999999998L4 555.7999999999998L6 553.7999999999998L8 555.7999999999998L10 553.7999999999998L12 555.7999999999998L14 553.7999999999998L16 555.7999999999998L18 553.7999999999998L20 555.7999999999998L22 553.7999999999998L24 555.7999999999998L26 553.7999999999998L28 555.7999999999998L30 553.7999999999998L32 555.7999999999998L34 553.7999999999998L36 555.7999999999998L38 553.7999999999998L40 555.7999999999998L42 553.7999999999998L44 555.7999999999998L46 553.7999999999998L48 555.7999999999998L50 553.7999999999998L52 555.7999999999998L54 553.7999999999998L56 555.7999999999998L58 553.7999999999998L60 555.7999999999998L62 553.7999999999998L64 555.7999999999998L66 553.7999999999998L68 555.7999999999998L70 553.7999999999998L72 555.7999999999998L74 553.7999999999998L76 555.7999999999998L78 553.7999999999998L80 555.7999999999998L82 553.7999999999998L84 555.7999999999998L86 553.7999999999998L88 555.7999999999998L90 553.7999999999998L92 555.7999999999998L94 553.7999999999998L96 555.7999999999998L98 553.7999999999998L100 555.7999999999998L102 553.7999999999998L104 555.7999999999998L106 553.7999999999998L108 555.7999999999998L110 553.7999999999998L112 555.7999999999998L114 553.7999999999998L116 555.7999999999998L118 553.7999999999998L120 555.7999999999998L122 553.7999999999998L124 555.7999999999998L126 553.7999999999998L128 555.7999999999998L130 553.7999999999998L132 555.7999999999998L134 553.7999999999998L136 555.7999999999998L138 553.7999999999998L140 555.7999999999998L142 553.7999999999998L144 555.7999999999998L146 553.7999999999998L148 555.7999999999998L150 553.7999999999998L152 555.7999999999998L154 553.7999999999998L156 555.7999999999998L158 553.7999999999998L160 555.7999999999998L162 553.7999999999998L164 555.7999999999998L166 553.7999999999998L168 555.7999999999998L170 553.7999999999998L172 555.7999999999998L174 553.7999999999998L176 555.7999999999998L178 553.7999999999998L180 555.7999999999998L182 553.7999999999998L184 555.7999999999998L186 553.7999999999998L188 555.7999999999998L190 553.7999999999998L192 555.7999999999998L194 553.7999999999998L196 555.7999999999998L198 553.7999999999998L200 555.7999999999998L202 553.7999999999998L204 555.7999999999998L206 553.7999999999998L208 555.7999999999998L210 553.7999999999998L212 555.7999999999998L214 553.7999999999998L216 555.7999999999998L218 553.7999999999998L220 555.7999999999998L222 553.7999999999998L224 555.7999999999998L226 553.7999999999998L228 555.7999999999998L230 553.7999999999998L232 555.7999999999998L234 553.7999999999998L236 555.7999999999998L238 553.7999999999998L240 555.7999999999998L242 553.7999999999998L244 555.7999999999998L246 553.7999999999998L248 555.7999999999998L250 553.7999999999998L252 555.7999999999998L254 553.7999999999998L256 555.7999999999998L258 553.7999999999998L260 555.7999999999998L262 553.7999999999998L264 555.7999999999998L266 553.7999999999998L268 555.7999999999998L270 553.7999999999998L272 555.7999999999998L274 553.7999999999998L276 555.7999999999998L278 553.7999999999998L280 555.7999999999998L282 553.7999999999998L284 555.7999999999998L286 553.7999999999998L288 555.7999999999998L290 553.7999999999998L292 555.7999999999998L294 553.7999999999998L296 555.7999999999998L298 553.7999999999998L300 555.7999999999998L302 553.7999999999998L304 555.7999999999998L306 553.7999999999998L308 555.7999999999998L310 553.7999999999998L312 555.7999999999998L314 553.7999999999998L316 555.7999999999998L318 553.7999999999998L320 555.7999999999998L322 553.7999999999998L324 555.7999999999998L326 553.7999999999998L328 555.7999999999998L330 553.7999999999998L332 555.7999999999998L334 553.7999999999998L336 555.7999999999998L338 553.7999999999998L340 555.7999999999998L342 553.7999999999998L344 555.7999999999998L346 553.7999999999998L348 555.7999999999998L350 553.7999999999998L352 555.7999999999998L354 553.7999999999998L356 555.7999999999998L358 553.7999999999998L360 555.7999999999998L362 553.7999999999998L364 555.7999999999998L366 553.7999999999998L368 555.7999999999998L370 553.7999999999998L372 555.7999999999998L374 553.7999999999998L376 555.7999999999998L378 553.7999999999998L380 555.7999999999998L382 553.7999999999998L384 555.7999999999998L386 553.7999999999998L388 555.7999999999998L390 553.7999999999998L392 555.7999999999998L394 553.7999999999998L396 555.7999999999998L398 553.7999999999998L400 555.7999999999998L402 553.7999999999998L404 555.7999999999998L406 553.7999999999998L408 555.7999999999998L410 553.7999999999998L412 555.7999999999998L414 553.7999999999998L416 555.7999999999998L418 553.7999999999998L420 555.7999999999998L422 553.7999999999998L424 555.7999999999998L426 553.7999999999998L428 555.7999999999998L430 553.7999999999998L432 555.7999999999998L434 553.7999999999998L436 555.7999999999998L438 553.7999999999998L440 555.7999999999998L442 553.7999999999998L444 555.7999999999998L446 553.7999999999998L448 555.7999999999998L450 553.7999999999998L452 555.7999999999998L454 553.7999999999998L456 555.7999999999998L458 553.7999999999998L460 555.7999999999998L462 553.7999999999998L464 555.7999999999998L466 553.7999999999998L468 555.7999999999998L470 553.7999999999998L472 555.7999999999998L474 553.7999999999998L476 555.7999999999998L478 553.7999999999998L480 555.7999999999998L482 553.7999999999998L484 555.7999999999998L486 553.7999999999998L488 555.7999999999998L490 553.7999999999998L492 555.7999999999998L494 553.7999999999998L496 555.7999999999998L498 553.7999999999998L500 555.7999999999998L502 553.7999999999998L504 555.7999999999998L506 553.7999999999998L508 555.7999999999998L510 553.7999999999998L512 555.7999999999998L514 553.7999999999998L516 555.7999999999998L518 553.7999999999998L520 555.7999999999998L522 553.7999999999998L524 555.7999999999998L526 553.7999999999998L528 555.7999999999998L530 553.7999999999998L532 555.7999999999998L534 553.7999999999998L536 555.7999999999998L538 553.7999999999998L540 555.7999999999998L542 553.7999999999998L544 555.7999999999998L546 553.7999999999998L548 555.7999999999998L550 553.7999999999998L552 555.7999999999998L554 553.7999999999998L556 555.7999999999998L558 553.7999999999998L560 555.7999999999998L562 553.7999999999998L564 555.7999999999998L566 553.7999999999998L568 555.7999999999998L570 553.7999999999998L572 555.7999999999998L574 553.7999999999998L576 555.7999999999998L578 553.7999999999998L580 555.7999999999998L582 553.7999999999998L584 555.7999999999998L586 553.7999999999998L588 555.7999999999998L590 553.7999999999998L592 555.7999999999998L594 553.7999999999998L596 555.7999999999998L598 553.7999999999998L600 555.7999999999998L602 553.7999999999998L604 555.7999999999998L606 553.7999999999998L608 555.7999999999998L610 553.7999999999998L612 555.7999999999998L614 553.7999999999998L616 555.7999999999998L618 553.7999999999998L620 555.7999999999998L622 553.7999999999998L624 555.7999999999998L626 553.7999999999998L628 555.7999999999998L630 553.7999999999998L632 555.7999999999998L634 553.7999999999998L636 555.7999999999998L638 553.7999999999998L640 555.7999999999998L642 553.7999999999998L644 555.7999999999998L646 553.7999999999998L648 555.7999999999998L650 553.7999999999998L652 555.7999999999998L654 553.7999999999998L656 555.7999999999998L658 553.7999999999998L660 555.7999999999998L662 553.7999999999998L664 555.7999999999998L666 553.7999999999998L668 555.7999999999998L670 553.7999999999998L672 555.7999999999998L674 553.7999999999998L676 555.7999999999998L678 553.7999999999998L680 555.7999999999998L682 553.7999999999998L684 555.7999999999998L686 553.7999999999998L688 555.7999999999998L690 553.7999999999998L692 555.7999999999998L694 553.7999999999998L696 555.7999999999998L698 553.7999999999998L700 555.7999999999998L702 553.7999999999998L704 555.7999999999998L706 553.7999999999998L708 555.7999999999998L710 553.7999999999998L712 555.7999999999998L714 553.7999999999998L716 555.7999999999998L718 553.7999999999998L720 555.7999999999998L722 553.7999999999998L724 555.7999999999998L726 553.7999999999998L728 555.7999999999998L730 553.7999999999998L732 555.7999999999998L734 553.7999999999998L736 555.7999999999998L738 553.7999999999998L740 555.7999999999998L742 553.7999999999998L744 555.7999999999998L746 553.7999999999998L748 555.7999999999998L750 553.7999999999998L752 555.7999999999998L754 553.7999999999998L756 555.7999999999998L758 553.7999999999998L760 555.7999999999998L762 553.7999999999998L764 555.7999999999998L766 553.7999999999998L768 555.7999999999998L770 553.7999999999998L772 555.7999999999998L774 553.7999999999998L776 555.7999999999998L778 553.7999999999998L780 555.7999999999998L782 553.7999999999998L784 555.7999999999998L786 553.7999999999998L788 555.7999999999998L790 553.7999999999998L792 555.7999999999998L794 553.7999999999998L796 555.7999999999998L798 553.7999999999998L800 555.7999999999998L802 553.7999999999998L804 555.7999999999998L806 553.7999999999998L808 555.7999999999998L810 553.7999999999998L812 555.7999999999998L814 553.7999999999998L816 555.7999999999998L818 553.7999999999998L820 555.7999999999998L822 553.7999999999998L824 555.7999999999998L826 553.7999999999998L828 555.7999999999998L830 553.7999999999998L832 555.7999999999998L834 553.7999999999998L836 555.7999999999998L838 553.7999999999998L840 555.7999999999998L842 553.7999999999998L844 555.7999999999998L846 553.7999999999998L848 555.7999999999998L850 553.7999999999998L852 555.7999999999998L854 553.7999999999998L856 555.7999999999998L858 553.7999999999998L860 555.7999999999998L862 553.7999999999998L864 555.7999999999998L866 553.7999999999998L868 555.7999999999998L870 553.7999999999998L872 555.7999999999998L874 553.7999999999998L876 555.7999999999998L879.6544523239136 574.7999999999998L876 575.7999999999998L874 573.7999999999998L872 575.7999999999998L870 573.7999999999998L868 575.7999999999998L866 573.7999999999998L864 575.7999999999998L862 573.7999999999998L860 575.7999999999998L858 573.7999999999998L856 575.7999999999998L854 573.7999999999998L852 575.7999999999998L850 573.7999999999998L848 575.7999999999998L846 573.7999999999998L844 575.7999999999998L842 573.7999999999998L840 575.7999999999998L838 573.7999999999998L836 575.7999999999998L834 573.7999999999998L832 575.7999999999998L830 573.7999999999998L828 575.7999999999998L826 573.7999999999998L824 575.7999999999998L822 573.7999999999998L820 575.7999999999998L818 573.7999999999998L816 575.7999999999998L814 573.7999999999998L812 575.7999999999998L810 573.7999999999998L808 575.7999999999998L806 573.7999999999998L804 575.7999999999998L802 573.7999999999998L800 575.7999999999998L798 573.7999999999998L796 575.7999999999998L794 573.7999999999998L792 575.7999999999998L790 573.7999999999998L788 575.7999999999998L786 573.7999999999998L784 575.7999999999998L782 573.7999999999998L780 575.7999999999998L778 573.7999999999998L776 575.7999999999998L774 573.7999999999998L772 575.7999999999998L770 573.7999999999998L768 575.7999999999998L766 573.7999999999998L764 575.7999999999998L762 573.7999999999998L760 575.7999999999998L758 573.7999999999998L756 575.7999999999998L754 573.7999999999998L752 575.7999999999998L750 573.7999999999998L748 575.7999999999998L746 573.7999999999998L744 575.7999999999998L742 573.7999999999998L740 575.7999999999998L738 573.7999999999998L736 575.7999999999998L734 573.7999999999998L732 575.7999999999998L730 573.7999999999998L728 575.7999999999998L726 573.7999999999998L724 575.7999999999998L722 573.7999999999998L720 575.7999999999998L718 573.7999999999998L716 575.7999999999998L714 573.7999999999998L712 575.7999999999998L710 573.7999999999998L708 575.7999999999998L706 573.7999999999998L704 575.7999999999998L702 573.7999999999998L700 575.7999999999998L698 573.7999999999998L696 575.7999999999998L694 573.7999999999998L692 575.7999999999998L690 573.7999999999998L688 575.7999999999998L686 573.7999999999998L684 575.7999999999998L682 573.7999999999998L680 575.7999999999998L678 573.7999999999998L676 575.7999999999998L674 573.7999999999998L672 575.7999999999998L670 573.7999999999998L668 575.7999999999998L666 573.7999999999998L664 575.7999999999998L662 573.7999999999998L660 575.7999999999998L658 573.7999999999998L656 575.7999999999998L654 573.7999999999998L652 575.7999999999998L650 573.7999999999998L648 575.7999999999998L646 573.7999999999998L644 575.7999999999998L642 573.7999999999998L640 575.7999999999998L638 573.7999999999998L636 575.7999999999998L634 573.7999999999998L632 575.7999999999998L630 573.7999999999998L628 575.7999999999998L626 573.7999999999998L624 575.7999999999998L622 573.7999999999998L620 575.7999999999998L618 573.7999999999998L616 575.7999999999998L614 573.7999999999998L612 575.7999999999998L610 573.7999999999998L608 575.7999999999998L606 573.7999999999998L604 575.7999999999998L602 573.7999999999998L600 575.7999999999998L598 573.7999999999998L596 575.7999999999998L594 573.7999999999998L592 575.7999999999998L590 573.7999999999998L588 575.7999999999998L586 573.7999999999998L584 575.7999999999998L582 573.7999999999998L580 575.7999999999998L578 573.7999999999998L576 575.7999999999998L574 573.7999999999998L572 575.7999999999998L570 573.7999999999998L568 575.7999999999998L566 573.7999999999998L564 575.7999999999998L562 573.7999999999998L560 575.7999999999998L558 573.7999999999998L556 575.7999999999998L554 573.7999999999998L552 575.7999999999998L550 573.7999999999998L548 575.7999999999998L546 573.7999999999998L544 575.7999999999998L542 573.7999999999998L540 575.7999999999998L538 573.7999999999998L536 575.7999999999998L534 573.7999999999998L532 575.7999999999998L530 573.7999999999998L528 575.7999999999998L526 573.7999999999998L524 575.7999999999998L522 573.7999999999998L520 575.7999999999998L518 573.7999999999998L516 575.7999999999998L514 573.7999999999998L512 575.7999999999998L510 573.7999999999998L508 575.7999999999998L506 573.7999999999998L504 575.7999999999998L502 573.7999999999998L500 575.7999999999998L498 573.7999999999998L496 575.7999999999998L494 573.7999999999998L492 575.7999999999998L490 573.7999999999998L488 575.7999999999998L486 573.7999999999998L484 575.7999999999998L482 573.7999999999998L480 575.7999999999998L478 573.7999999999998L476 575.7999999999998L474 573.7999999999998L472 575.7999999999998L470 573.7999999999998L468 575.7999999999998L466 573.7999999999998L464 575.7999999999998L462 573.7999999999998L460 575.7999999999998L458 573.7999999999998L456 575.7999999999998L454 573.7999999999998L452 575.7999999999998L450 573.7999999999998L448 575.7999999999998L446 573.7999999999998L444 575.7999999999998L442 573.7999999999998L440 575.7999999999998L438 573.7999999999998L436 575.7999999999998L434 573.7999999999998L432 575.7999999999998L430 573.7999999999998L428 575.7999999999998L426 573.7999999999998L424 575.7999999999998L422 573.7999999999998L420 575.7999999999998L418 573.7999999999998L416 575.7999999999998L414 573.7999999999998L412 575.7999999999998L410 573.7999999999998L408 575.7999999999998L406 573.7999999999998L404 575.7999999999998L402 573.7999999999998L400 575.7999999999998L398 573.7999999999998L396 575.7999999999998L394 573.7999999999998L392 575.7999999999998L390 573.7999999999998L388 575.7999999999998L386 573.7999999999998L384 575.7999999999998L382 573.7999999999998L380 575.7999999999998L378 573.7999999999998L376 575.7999999999998L374 573.7999999999998L372 575.7999999999998L370 573.7999999999998L368 575.7999999999998L366 573.7999999999998L364 575.7999999999998L362 573.7999999999998L360 575.7999999999998L358 573.7999999999998L356 575.7999999999998L354 573.7999999999998L352 575.7999999999998L350 573.7999999999998L348 575.7999999999998L346 573.7999999999998L344 575.7999999999998L342 573.7999999999998L340 575.7999999999998L338 573.7999999999998L336 575.7999999999998L334 573.7999999999998L332 575.7999999999998L330 573.7999999999998L328 575.7999999999998L326 573.7999999999998L324 575.7999999999998L322 573.7999999999998L320 575.7999999999998L318 573.7999999999998L316 575.7999999999998L314 573.7999999999998L312 575.7999999999998L310 573.7999999999998L308 575.7999999999998L306 573.7999999999998L304 575.7999999999998L302 573.7999999999998L300 575.7999999999998L298 573.7999999999998L296 575.7999999999998L294 573.7999999999998L292 575.7999999999998L290 573.7999999999998L288 575.7999999999998L286 573.7999999999998L284 575.7999999999998L282 573.7999999999998L280 575.7999999999998L278 573.7999999999998L276 575.7999999999998L274 573.7999999999998L272 575.7999999999998L270 573.7999999999998L268 575.7999999999998L266 573.7999999999998L264 575.7999999999998L262 573.7999999999998L260 575.7999999999998L258 573.7999999999998L256 575.7999999999998L254 573.7999999999998L252 575.7999999999998L250 573.7999999999998L248 575.7999999999998L246 573.7999999999998L244 575.7999999999998L242 573.7999999999998L240 575.7999999999998L238 573.7999999999998L236 575.7999999999998L234 573.7999999999998L232 575.7999999999998L230 573.7999999999998L228 575.7999999999998L226 573.7999999999998L224 575.7999999999998L222 573.7999999999998L220 575.7999999999998L218 573.7999999999998L216 575.7999999999998L214 573.7999999999998L212 575.7999999999998L210 573.7999999999998L208 575.7999999999998L206 573.7999999999998L204 575.7999999999998L202 573.7999999999998L200 575.7999999999998L198 573.7999999999998L196 575.7999999999998L194 573.7999999999998L192 575.7999999999998L190 573.7999999999998L188 575.7999999999998L186 573.7999999999998L184 575.7999999999998L182 573.7999999999998L180 575.7999999999998L178 573.7999999999998L176 575.7999999999998L174 573.7999999999998L172 575.7999999999998L170 573.7999999999998L168 575.7999999999998L166 573.7999999999998L164 575.7999999999998L162 573.7999999999998L160 575.7999999999998L158 573.7999999999998L156 575.7999999999998L154 573.7999999999998L152 575.7999999999998L150 573.7999999999998L148 575.7999999999998L146 573.7999999999998L144 575.7999999999998L142 573.7999999999998L140 575.7999999999998L138 573.7999999999998L136 575.7999999999998L134 573.7999999999998L132 575.7999999999998L130 573.7999999999998L128 575.7999999999998L126 573.7999999999998L124 575.7999999999998L122 573.7999999999998L120 575.7999999999998L118 573.7999999999998L116 575.7999999999998L114 573.7999999999998L112 575.7999999999998L110 573.7999999999998L108 575.7999999999998L106 573.7999999999998L104 575.7999999999998L102 573.7999999999998L100 575.7999999999998L98 573.7999999999998L96 575.7999999999998L94 573.7999999999998L92 575.7999999999998L90 573.7999999999998L88 575.7999999999998L86 573.7999999999998L84 575.7999999999998L82 573.7999999999998L80 575.7999999999998L78 573.7999999999998L76 575.7999999999998L74 573.7999999999998L72 575.7999999999998L70 573.7999999999998L68 575.7999999999998L66 573.7999999999998L64 575.7999999999998L62 573.7999999999998L60 575.7999999999998L58 573.7999999999998L56 575.7999999999998L54 573.7999999999998L52 575.7999999999998L50 573.7999999999998L48 575.7999999999998L46 573.7999999999998L44 575.7999999999998L42 573.7999999999998L40 575.7999999999998L38 573.7999999999998L36 575.7999999999998L34 573.7999999999998L32 575.7999999999998L30 573.7999999999998L28 575.7999999999998L26 573.7999999999998L24 575.7999999999998L22 573.7999999999998L20 575.7999999999998L18 573.7999999999998L16 575.7999999999998L14 573.7999999999998L12 575.7999999999998L10 573.7999999999998L8 575.7999999999998L6 573.7999999999998L4 575.7999999999998L2 573.7999999999998L0 575.7999999999998L-2 573.7999999999998L-4 575.7999999999998L-6 573.7999999999998L-8 575.7999999999998" fill="#000000"></path></mask><mask id="R2LineMask" maskUnits="userSpaceOnUse"><rect fill="#FFFFFF" height="746.5999999999998" width="895.6544523239136" x="-12" y="-38"></rect><rect fill="#000000" height="24.8" width="251.21726989746094" x="12" y="0"></rect><rect fill="#000000" height="21.8" width="174.0123291015625" x="102.30475902557373" y="65.4"></rect><rect fill="#000000" height="14.4" width="107.20669555664062" x="320.2207899093628" y="113.2"></rect><rect fill="#000000" height="21.8" width="135.60951232910156" x="397.72519969940186" y="168.20000000000002"></rect><rect fill="#000000" height="11.4" width="154.81092834472656" x="434.52686977386475" y="239.60000000000002"></rect><rect fill="#000000" height="32.2" width="150.0105743408203" x="692.6438779830933" y="265"></rect><rect fill="#000000" height="21.8" width="140.4098663330078" x="441.7274007797241" y="327.2"></rect><rect fill="#000000" height="14.4" width="78.40458297729492" x="320.2207899093628" y="375"></rect><rect fill="#000000" height="11.4" width="255.6183319091797" x="337.7207899093628" y="394.4"></rect><rect fill="#000000" height="11.4" width="87.60599517822266" x="468.1293363571167" y="419.79999999999995"></rect><rect fill="#000000" height="11.4" width="145.21022033691406" x="439.327223777771" y="445.19999999999993"></rect><rect fill="#000000" height="14.4" width="54.4028205871582" x="34.40105724334717" y="482.5999999999999"></rect><rect fill="#000000" height="11.4" width="150.0105743408203" x="436.92704677581787" y="501.9999999999999"></rect><rect fill="#000000" height="11.4" width="274.8197326660156" x="51.90105724334717" y="527.3999999999999"></rect><rect fill="#000000" height="11.4" width="126.0088119506836" x="126.30651760101318" y="592.7999999999998"></rect><rect fill="#000000" height="11.4" width="63.60422897338867" x="157.50880908966064" y="618.1999999999998"></rect><rect fill="#000000" height="11.4" width="164.41163635253906" x="429.7265157699585" y="643.5999999999998"></rect></mask><linearGradient id="R2tear-grad"><stop offset="0.4506258025888166%" stop-color="#000000"></stop><stop offset="0.9012516051776333%" stop-color="#FFFFFF"></stop><stop offset="99.09874839482237%" stop-color="#FFFFFF"></stop><stop offset="99.54937419741118%" stop-color="#000000"></stop></linearGradient><mask maskUnits="userSpaceOnUse" id="R2P1"><rect fill="url(#R2tear-grad)" height="30" width="887.6544523239136" x="-8" y="549.7999999999998"></rect><rect fill="#000000" rx="2" ry="2" height="12.4" width="178.0123291015625" x="346.82106161117554" y="558.5999999999998"></rect></mask></defs><g></g><g><text x="435.8272261619568" class="title" font-family="Courier New,Liberation Mono,monospace" font-size="20" line-height="1.3" text-anchor="middle" y="-14">Task-Them</text></g><g><g class="region"><rect class="outline" fill="transparent" height="28" width="887.6544523239136" x="-8" y="550.7999999999998"></rect><g mask="url(#R2P1)"><path d="M-8 555.7999999999998L-6 553.7999999999998L-4 555.7999999999998L-2 553.7999999999998L0 555.7999999999998L2 553.7999999999998L4 555.7999999999998L6 553.7999999999998L8 555.7999999999998L10 553.7999999999998L12 555.7999999999998L14 553.7999999999998L16 555.7999999999998L18 553.7999999999998L20 555.7999999999998L22 553.7999999999998L24 555.7999999999998L26 553.7999999999998L28 555.7999999999998L30 553.7999999999998L32 555.7999999999998L34 553.7999999999998L36 555.7999999999998L38 553.7999999999998L40 555.7999999999998L42 553.7999999999998L44 555.7999999999998L46 553.7999999999998L48 555.7999999999998L50 553.7999999999998L52 555.7999999999998L54 553.7999999999998L56 555.7999999999998L58 553.7999999999998L60 555.7999999999998L62 553.7999999999998L64 555.7999999999998L66 553.7999999999998L68 555.7999999999998L70 553.7999999999998L72 555.7999999999998L74 553.7999999999998L76 555.7999999999998L78 553.7999999999998L80 555.7999999999998L82 553.7999999999998L84 555.7999999999998L86 553.7999999999998L88 555.7999999999998L90 553.7999999999998L92 555.7999999999998L94 553.7999999999998L96 555.7999999999998L98 553.7999999999998L100 555.7999999999998L102 553.7999999999998L104 555.7999999999998L106 553.7999999999998L108 555.7999999999998L110 553.7999999999998L112 555.7999999999998L114 553.7999999999998L116 555.7999999999998L118 553.7999999999998L120 555.7999999999998L122 553.7999999999998L124 555.7999999999998L126 553.7999999999998L128 555.7999999999998L130 553.7999999999998L132 555.7999999999998L134 553.7999999999998L136 555.7999999999998L138 553.7999999999998L140 555.7999999999998L142 553.7999999999998L144 555.7999999999998L146 553.7999999999998L148 555.7999999999998L150 553.7999999999998L152 555.7999999999998L154 553.7999999999998L156 555.7999999999998L158 553.7999999999998L160 555.7999999999998L162 553.7999999999998L164 555.7999999999998L166 553.7999999999998L168 555.7999999999998L170 553.7999999999998L172 555.7999999999998L174 553.7999999999998L176 555.7999999999998L178 553.7999999999998L180 555.7999999999998L182 553.7999999999998L184 555.7999999999998L186 553.7999999999998L188 555.7999999999998L190 553.7999999999998L192 555.7999999999998L194 553.7999999999998L196 555.7999999999998L198 553.7999999999998L200 555.7999999999998L202 553.7999999999998L204 555.7999999999998L206 553.7999999999998L208 555.7999999999998L210 553.7999999999998L212 555.7999999999998L214 553.7999999999998L216 555.7999999999998L218 553.7999999999998L220 555.7999999999998L222 553.7999999999998L224 555.7999999999998L226 553.7999999999998L228 555.7999999999998L230 553.7999999999998L232 555.7999999999998L234 553.7999999999998L236 555.7999999999998L238 553.7999999999998L240 555.7999999999998L242 553.7999999999998L244 555.7999999999998L246 553.7999999999998L248 555.7999999999998L250 553.7999999999998L252 555.7999999999998L254 553.7999999999998L256 555.7999999999998L258 553.7999999999998L260 555.7999999999998L262 553.7999999999998L264 555.7999999999998L266 553.7999999999998L268 555.7999999999998L270 553.7999999999998L272 555.7999999999998L274 553.7999999999998L276 555.7999999999998L278 553.7999999999998L280 555.7999999999998L282 553.7999999999998L284 555.7999999999998L286 553.7999999999998L288 555.7999999999998L290 553.7999999999998L292 555.7999999999998L294 553.7999999999998L296 555.7999999999998L298 553.7999999999998L300 555.7999999999998L302 553.7999999999998L304 555.7999999999998L306 553.7999999999998L308 555.7999999999998L310 553.7999999999998L312 555.7999999999998L314 553.7999999999998L316 555.7999999999998L318 553.7999999999998L320 555.7999999999998L322 553.7999999999998L324 555.7999999999998L326 553.7999999999998L328 555.7999999999998L330 553.7999999999998L332 555.7999999999998L334 553.7999999999998L336 555.7999999999998L338 553.7999999999998L340 555.7999999999998L342 553.7999999999998L344 555.7999999999998L346 553.7999999999998L348 555.7999999999998L350 553.7999999999998L352 555.7999999999998L354 553.7999999999998L356 555.7999999999998L358 553.7999999999998L360 555.7999999999998L362 553.7999999999998L364 555.7999999999998L366 553.7999999999998L368 555.7999999999998L370 553.7999999999998L372 555.7999999999998L374 553.7999999999998L376 555.7999999999998L378 553.7999999999998L380 555.7999999999998L382 553.7999999999998L384 555.7999999999998L386 553.7999999999998L388 555.7999999999998L390 553.7999999999998L392 555.7999999999998L394 553.7999999999998L396 555.7999999999998L398 553.7999999999998L400 555.7999999999998L402 553.7999999999998L404 555.7999999999998L406 553.7999999999998L408 555.7999999999998L410 553.7999999999998L412 555.7999999999998L414 553.7999999999998L416 555.7999999999998L418 553.7999999999998L420 555.7999999999998L422 553.7999999999998L424 555.7999999999998L426 553.7999999999998L428 555.7999999999998L430 553.7999999999998L432 555.7999999999998L434 553.7999999999998L436 555.7999999999998L438 553.7999999999998L440 555.7999999999998L442 553.7999999999998L444 555.7999999999998L446 553.7999999999998L448 555.7999999999998L450 553.7999999999998L452 555.7999999999998L454 553.7999999999998L456 555.7999999999998L458 553.7999999999998L460 555.7999999999998L462 553.7999999999998L464 555.7999999999998L466 553.7999999999998L468 555.7999999999998L470 553.7999999999998L472 555.7999999999998L474 553.7999999999998L476 555.7999999999998L478 553.7999999999998L480 555.7999999999998L482 553.7999999999998L484 555.7999999999998L486 553.7999999999998L488 555.7999999999998L490 553.7999999999998L492 555.7999999999998L494 553.7999999999998L496 555.7999999999998L498 553.7999999999998L500 555.7999999999998L502 553.7999999999998L504 555.7999999999998L506 553.7999999999998L508 555.7999999999998L510 553.7999999999998L512 555.7999999999998L514 553.7999999999998L516 555.7999999999998L518 553.7999999999998L520 555.7999999999998L522 553.7999999999998L524 555.7999999999998L526 553.7999999999998L528 555.7999999999998L530 553.7999999999998L532 555.7999999999998L534 553.7999999999998L536 555.7999999999998L538 553.7999999999998L540 555.7999999999998L542 553.7999999999998L544 555.7999999999998L546 553.7999999999998L548 555.7999999999998L550 553.7999999999998L552 555.7999999999998L554 553.7999999999998L556 555.7999999999998L558 553.7999999999998L560 555.7999999999998L562 553.7999999999998L564 555.7999999999998L566 553.7999999999998L568 555.7999999999998L570 553.7999999999998L572 555.7999999999998L574 553.7999999999998L576 555.7999999999998L578 553.7999999999998L580 555.7999999999998L582 553.7999999999998L584 555.7999999999998L586 553.7999999999998L588 555.7999999999998L590 553.7999999999998L592 555.7999999999998L594 553.7999999999998L596 555.7999999999998L598 553.7999999999998L600 555.7999999999998L602 553.7999999999998L604 555.7999999999998L606 553.7999999999998L608 555.7999999999998L610 553.7999999999998L612 555.7999999999998L614 553.7999999999998L616 555.7999999999998L618 553.7999999999998L620 555.7999999999998L622 553.7999999999998L624 555.7999999999998L626 553.7999999999998L628 555.7999999999998L630 553.7999999999998L632 555.7999999999998L634 553.7999999999998L636 555.7999999999998L638 553.7999999999998L640 555.7999999999998L642 553.7999999999998L644 555.7999999999998L646 553.7999999999998L648 555.7999999999998L650 553.7999999999998L652 555.7999999999998L654 553.7999999999998L656 555.7999999999998L658 553.7999999999998L660 555.7999999999998L662 553.7999999999998L664 555.7999999999998L666 553.7999999999998L668 555.7999999999998L670 553.7999999999998L672 555.7999999999998L674 553.7999999999998L676 555.7999999999998L678 553.7999999999998L680 555.7999999999998L682 553.7999999999998L684 555.7999999999998L686 553.7999999999998L688 555.7999999999998L690 553.7999999999998L692 555.7999999999998L694 553.7999999999998L696 555.7999999999998L698 553.7999999999998L700 555.7999999999998L702 553.7999999999998L704 555.7999999999998L706 553.7999999999998L708 555.7999999999998L710 553.7999999999998L712 555.7999999999998L714 553.7999999999998L716 555.7999999999998L718 553.7999999999998L720 555.7999999999998L722 553.7999999999998L724 555.7999999999998L726 553.7999999999998L728 555.7999999999998L730 553.7999999999998L732 555.7999999999998L734 553.7999999999998L736 555.7999999999998L738 553.7999999999998L740 555.7999999999998L742 553.7999999999998L744 555.7999999999998L746 553.7999999999998L748 555.7999999999998L750 553.7999999999998L752 555.7999999999998L754 553.7999999999998L756 555.7999999999998L758 553.7999999999998L760 555.7999999999998L762 553.7999999999998L764 555.7999999999998L766 553.7999999999998L768 555.7999999999998L770 553.7999999999998L772 555.7999999999998L774 553.7999999999998L776 555.7999999999998L778 553.7999999999998L780 555.7999999999998L782 553.7999999999998L784 555.7999999999998L786 553.7999999999998L788 555.7999999999998L790 553.7999999999998L792 555.7999999999998L794 553.7999999999998L796 555.7999999999998L798 553.7999999999998L800 555.7999999999998L802 553.7999999999998L804 555.7999999999998L806 553.7999999999998L808 555.7999999999998L810 553.7999999999998L812 555.7999999999998L814 553.7999999999998L816 555.7999999999998L818 553.7999999999998L820 555.7999999999998L822 553.7999999999998L824 555.7999999999998L826 553.7999999999998L828 555.7999999999998L830 553.7999999999998L832 555.7999999999998L834 553.7999999999998L836 555.7999999999998L838 553.7999999999998L840 555.7999999999998L842 553.7999999999998L844 555.7999999999998L846 553.7999999999998L848 555.7999999999998L850 553.7999999999998L852 555.7999999999998L854 553.7999999999998L856 555.7999999999998L858 553.7999999999998L860 555.7999999999998L862 553.7999999999998L864 555.7999999999998L866 553.7999999999998L868 555.7999999999998L870 553.7999999999998L872 555.7999999999998L874 553.7999999999998L876 555.7999999999998" fill="none" stroke="#000000"></path><path d="M-8 575.7999999999998L-6 573.7999999999998L-4 575.7999999999998L-2 573.7999999999998L0 575.7999999999998L2 573.7999999999998L4 575.7999999999998L6 573.7999999999998L8 575.7999999999998L10 573.7999999999998L12 575.7999999999998L14 573.7999999999998L16 575.7999999999998L18 573.7999999999998L20 575.7999999999998L22 573.7999999999998L24 575.7999999999998L26 573.7999999999998L28 575.7999999999998L30 573.7999999999998L32 575.7999999999998L34 573.7999999999998L36 575.7999999999998L38 573.7999999999998L40 575.7999999999998L42 573.7999999999998L44 575.7999999999998L46 573.7999999999998L48 575.7999999999998L50 573.7999999999998L52 575.7999999999998L54 573.7999999999998L56 575.7999999999998L58 573.7999999999998L60 575.7999999999998L62 573.7999999999998L64 575.7999999999998L66 573.7999999999998L68 575.7999999999998L70 573.7999999999998L72 575.7999999999998L74 573.7999999999998L76 575.7999999999998L78 573.7999999999998L80 575.7999999999998L82 573.7999999999998L84 575.7999999999998L86 573.7999999999998L88 575.7999999999998L90 573.7999999999998L92 575.7999999999998L94 573.7999999999998L96 575.7999999999998L98 573.7999999999998L100 575.7999999999998L102 573.7999999999998L104 575.7999999999998L106 573.7999999999998L108 575.7999999999998L110 573.7999999999998L112 575.7999999999998L114 573.7999999999998L116 575.7999999999998L118 573.7999999999998L120 575.7999999999998L122 573.7999999999998L124 575.7999999999998L126 573.7999999999998L128 575.7999999999998L130 573.7999999999998L132 575.7999999999998L134 573.7999999999998L136 575.7999999999998L138 573.7999999999998L140 575.7999999999998L142 573.7999999999998L144 575.7999999999998L146 573.7999999999998L148 575.7999999999998L150 573.7999999999998L152 575.7999999999998L154 573.7999999999998L156 575.7999999999998L158 573.7999999999998L160 575.7999999999998L162 573.7999999999998L164 575.7999999999998L166 573.7999999999998L168 575.7999999999998L170 573.7999999999998L172 575.7999999999998L174 573.7999999999998L176 575.7999999999998L178 573.7999999999998L180 575.7999999999998L182 573.7999999999998L184 575.7999999999998L186 573.7999999999998L188 575.7999999999998L190 573.7999999999998L192 575.7999999999998L194 573.7999999999998L196 575.7999999999998L198 573.7999999999998L200 575.7999999999998L202 573.7999999999998L204 575.7999999999998L206 573.7999999999998L208 575.7999999999998L210 573.7999999999998L212 575.7999999999998L214 573.7999999999998L216 575.7999999999998L218 573.7999999999998L220 575.7999999999998L222 573.7999999999998L224 575.7999999999998L226 573.7999999999998L228 575.7999999999998L230 573.7999999999998L232 575.7999999999998L234 573.7999999999998L236 575.7999999999998L238 573.7999999999998L240 575.7999999999998L242 573.7999999999998L244 575.7999999999998L246 573.7999999999998L248 575.7999999999998L250 573.7999999999998L252 575.7999999999998L254 573.7999999999998L256 575.7999999999998L258 573.7999999999998L260 575.7999999999998L262 573.7999999999998L264 575.7999999999998L266 573.7999999999998L268 575.7999999999998L270 573.7999999999998L272 575.7999999999998L274 573.7999999999998L276 575.7999999999998L278 573.7999999999998L280 575.7999999999998L282 573.7999999999998L284 575.7999999999998L286 573.7999999999998L288 575.7999999999998L290 573.7999999999998L292 575.7999999999998L294 573.7999999999998L296 575.7999999999998L298 573.7999999999998L300 575.7999999999998L302 573.7999999999998L304 575.7999999999998L306 573.7999999999998L308 575.7999999999998L310 573.7999999999998L312 575.7999999999998L314 573.7999999999998L316 575.7999999999998L318 573.7999999999998L320 575.7999999999998L322 573.7999999999998L324 575.7999999999998L326 573.7999999999998L328 575.7999999999998L330 573.7999999999998L332 575.7999999999998L334 573.7999999999998L336 575.7999999999998L338 573.7999999999998L340 575.7999999999998L342 573.7999999999998L344 575.7999999999998L346 573.7999999999998L348 575.7999999999998L350 573.7999999999998L352 575.7999999999998L354 573.7999999999998L356 575.7999999999998L358 573.7999999999998L360 575.7999999999998L362 573.7999999999998L364 575.7999999999998L366 573.7999999999998L368 575.7999999999998L370 573.7999999999998L372 575.7999999999998L374 573.7999999999998L376 575.7999999999998L378 573.7999999999998L380 575.7999999999998L382 573.7999999999998L384 575.7999999999998L386 573.7999999999998L388 575.7999999999998L390 573.7999999999998L392 575.7999999999998L394 573.7999999999998L396 575.7999999999998L398 573.7999999999998L400 575.7999999999998L402 573.7999999999998L404 575.7999999999998L406 573.7999999999998L408 575.7999999999998L410 573.7999999999998L412 575.7999999999998L414 573.7999999999998L416 575.7999999999998L418 573.7999999999998L420 575.7999999999998L422 573.7999999999998L424 575.7999999999998L426 573.7999999999998L428 575.7999999999998L430 573.7999999999998L432 575.7999999999998L434 573.7999999999998L436 575.7999999999998L438 573.7999999999998L440 575.7999999999998L442 573.7999999999998L444 575.7999999999998L446 573.7999999999998L448 575.7999999999998L450 573.7999999999998L452 575.7999999999998L454 573.7999999999998L456 575.7999999999998L458 573.7999999999998L460 575.7999999999998L462 573.7999999999998L464 575.7999999999998L466 573.7999999999998L468 575.7999999999998L470 573.7999999999998L472 575.7999999999998L474 573.7999999999998L476 575.7999999999998L478 573.7999999999998L480 575.7999999999998L482 573.7999999999998L484 575.7999999999998L486 573.7999999999998L488 575.7999999999998L490 573.7999999999998L492 575.7999999999998L494 573.7999999999998L496 575.7999999999998L498 573.7999999999998L500 575.7999999999998L502 573.7999999999998L504 575.7999999999998L506 573.7999999999998L508 575.7999999999998L510 573.7999999999998L512 575.7999999999998L514 573.7999999999998L516 575.7999999999998L518 573.7999999999998L520 575.7999999999998L522 573.7999999999998L524 575.7999999999998L526 573.7999999999998L528 575.7999999999998L530 573.7999999999998L532 575.7999999999998L534 573.7999999999998L536 575.7999999999998L538 573.7999999999998L540 575.7999999999998L542 573.7999999999998L544 575.7999999999998L546 573.7999999999998L548 575.7999999999998L550 573.7999999999998L552 575.7999999999998L554 573.7999999999998L556 575.7999999999998L558 573.7999999999998L560 575.7999999999998L562 573.7999999999998L564 575.7999999999998L566 573.7999999999998L568 575.7999999999998L570 573.7999999999998L572 575.7999999999998L574 573.7999999999998L576 575.7999999999998L578 573.7999999999998L580 575.7999999999998L582 573.7999999999998L584 575.7999999999998L586 573.7999999999998L588 575.7999999999998L590 573.7999999999998L592 575.7999999999998L594 573.7999999999998L596 575.7999999999998L598 573.7999999999998L600 575.7999999999998L602 573.7999999999998L604 575.7999999999998L606 573.7999999999998L608 575.7999999999998L610 573.7999999999998L612 575.7999999999998L614 573.7999999999998L616 575.7999999999998L618 573.7999999999998L620 575.7999999999998L622 573.7999999999998L624 575.7999999999998L626 573.7999999999998L628 575.7999999999998L630 573.7999999999998L632 575.7999999999998L634 573.7999999999998L636 575.7999999999998L638 573.7999999999998L640 575.7999999999998L642 573.7999999999998L644 575.7999999999998L646 573.7999999999998L648 575.7999999999998L650 573.7999999999998L652 575.7999999999998L654 573.7999999999998L656 575.7999999999998L658 573.7999999999998L660 575.7999999999998L662 573.7999999999998L664 575.7999999999998L666 573.7999999999998L668 575.7999999999998L670 573.7999999999998L672 575.7999999999998L674 573.7999999999998L676 575.7999999999998L678 573.7999999999998L680 575.7999999999998L682 573.7999999999998L684 575.7999999999998L686 573.7999999999998L688 575.7999999999998L690 573.7999999999998L692 575.7999999999998L694 573.7999999999998L696 575.7999999999998L698 573.7999999999998L700 575.7999999999998L702 573.7999999999998L704 575.7999999999998L706 573.7999999999998L708 575.7999999999998L710 573.7999999999998L712 575.7999999999998L714 573.7999999999998L716 575.7999999999998L718 573.7999999999998L720 575.7999999999998L722 573.7999999999998L724 575.7999999999998L726 573.7999999999998L728 575.7999999999998L730 573.7999999999998L732 575.7999999999998L734 573.7999999999998L736 575.7999999999998L738 573.7999999999998L740 575.7999999999998L742 573.7999999999998L744 575.7999999999998L746 573.7999999999998L748 575.7999999999998L750 573.7999999999998L752 575.7999999999998L754 573.7999999999998L756 575.7999999999998L758 573.7999999999998L760 575.7999999999998L762 573.7999999999998L764 575.7999999999998L766 573.7999999999998L768 575.7999999999998L770 573.7999999999998L772 575.7999999999998L774 573.7999999999998L776 575.7999999999998L778 573.7999999999998L780 575.7999999999998L782 573.7999999999998L784 575.7999999999998L786 573.7999999999998L788 575.7999999999998L790 573.7999999999998L792 575.7999999999998L794 573.7999999999998L796 575.7999999999998L798 573.7999999999998L800 575.7999999999998L802 573.7999999999998L804 575.7999999999998L806 573.7999999999998L808 575.7999999999998L810 573.7999999999998L812 575.7999999999998L814 573.7999999999998L816 575.7999999999998L818 573.7999999999998L820 575.7999999999998L822 573.7999999999998L824 575.7999999999998L826 573.7999999999998L828 575.7999999999998L830 573.7999999999998L832 575.7999999999998L834 573.7999999999998L836 575.7999999999998L838 573.7999999999998L840 575.7999999999998L842 573.7999999999998L844 575.7999999999998L846 573.7999999999998L848 575.7999999999998L850 573.7999999999998L852 575.7999999999998L854 573.7999999999998L856 575.7999999999998L858 573.7999999999998L860 575.7999999999998L862 573.7999999999998L864 575.7999999999998L866 573.7999999999998L868 575.7999999999998L870 573.7999999999998L872 575.7999999999998L874 573.7999999999998L876 575.7999999999998" fill="none" stroke="#000000"></path></g><g><text x="435.8272261619568" font-family="Courier New,Liberation Mono,monospace" font-size="8" line-height="1.3" text-anchor="middle" y="567.5999999999998">Manager keep running the async task</text></g></g></g><g mask="url(#R2FullMask)"><g mask="url(#R2LineMask)"><line fill="none" stroke="#000000" stroke-width="1" x1="46.40105724334717" x2="46.40105724334717" y1="51.400000000000006" y2="680.9999999999998" class="agent-3-line"></line><line fill="none" stroke="#000000" stroke-width="1" x1="332.2207899093628" x2="332.2207899093628" y1="51.400000000000006" y2="680.9999999999998" class="agent-6-line"></line><line fill="none" stroke="#000000" stroke-width="1" x1="598.8391218185425" x2="598.8391218185425" y1="154.20000000000002" y2="680.9999999999998" class="agent-8-line"></line><line fill="none" stroke="#000000" stroke-width="1" x1="691.6438779830933" x2="691.6438779830933" y1="225.60000000000002" y2="680.9999999999998" class="agent-9-line"></line></g><g><g><rect fill="none" stroke="#000000" stroke-width="2" height="101.2" width="365.4226408004761" x="12" y="0"></rect></g><g><rect fill="none" stroke="#000000" stroke-width="2" height="249.8" width="539.4336624145508" x="320.2207899093628" y="113.2"></rect></g><g><rect fill="none" stroke="#000000" stroke-width="2" height="95.59999999999991" width="383.42308807373047" x="320.2207899093628" y="375"></rect></g><g><rect fill="none" stroke="#000000" stroke-width="2" height="186.39999999999986" width="669.2428207397461" x="34.40105724334717" y="482.5999999999999"></rect></g></g><g><g class="region expanded"><rect class="outline" fill="transparent" height="24.8" width="365.4226408004761" x="12" y="0"></rect><g><text x="20" font-family="Courier New,Liberation Mono,monospace" font-size="8" line-height="1.3" text-anchor="left" y="10">Register task: All Task muts be registered as the</text><text x="20" font-family="Courier New,Liberation Mono,monospace" font-size="8" line-height="1.3" text-anchor="left" y="20.4">first call to task manager</text></g></g><g class="region"><g><rect fill="#FFFFFF" stroke="#000000" stroke-width="1" height="23.6" width="44.802114486694336" x="24" y="27.800000000000004"></rect><g><text x="46.40105724334717" font-family="Courier New,Liberation Mono,monospace" font-size="12" line-height="1.3" text-anchor="middle" y="43.800000000000004">task</text></g></g><rect class="outline" fill="transparent" height="23.6" width="44.802114486694336" x="24" y="27.800000000000004"></rect></g><g class="region"><g><rect fill="#FFFFFF" stroke="#000000" stroke-width="1" height="23.6" width="66.40370178222656" x="299.0189390182495" y="27.800000000000004"></rect><g><text x="332.2207899093628" font-family="Courier New,Liberation Mono,monospace" font-size="12" line-height="1.3" text-anchor="middle" y="43.800000000000004">manager</text></g></g><rect class="outline" fill="transparent" height="23.6" width="66.40370178222656" x="299.0189390182495" y="27.800000000000004"></rect></g><g class="region"><path d="M46.40105724334717 87.2L329.7207899093628 87.2" fill="none" stroke="#000000" stroke-width="1"></path><polygon points="327.7207899093628 91.2 331.7207899093628 87.2 327.7207899093628 83.2" fill="#000000" stroke-width="0" stroke-linejoin="miter"></polygon><path class="outline" fill="transparent" d="M46.40105724334717,63.400000000000006L332.2207899093628,63.400000000000006L332.2207899093628,91.2L46.40105724334717,91.2Z"></path><g><text x="189.31092357635498" font-family="Courier New,Liberation Mono,monospace" font-size="8" line-height="1.3" text-anchor="middle" y="73.4">Add task by calling add on manager:</text><text x="189.31092357635498" font-family="Courier New,Liberation Mono,monospace" font-size="8" line-height="1.3" text-anchor="middle" y="83.80000000000001">manager.add(Task1)</text></g></g><g class="region expanded"><rect class="outline" fill="transparent" height="14.4" width="539.4336624145508" x="320.2207899093628" y="113.2"></rect><g><text x="328.2207899093628" font-family="Courier New,Liberation Mono,monospace" font-size="8" line-height="1.3" text-anchor="left" y="123.2">Initialize taskthem</text></g></g><g class="region"><g><rect fill="#FFFFFF" stroke="#000000" stroke-width="1" height="23.6" width="80.80475616455078" x="558.4367437362671" y="130.60000000000002"></rect><g><text x="598.8391218185425" font-family="Courier New,Liberation Mono,monospace" font-size="12" line-height="1.3" text-anchor="middle" y="146.60000000000002">user-code</text></g></g><rect class="outline" fill="transparent" height="23.6" width="80.80475616455078" x="558.4367437362671" y="130.60000000000002"></rect></g><g class="region"><path d="M598.8391218185425 190.00000000000003L334.7207899093628 190.00000000000003" fill="none" stroke="#000000" stroke-width="1"></path><polygon points="336.7207899093628 186.00000000000003 332.7207899093628 190.00000000000003 336.7207899093628 194.00000000000003" fill="#000000" stroke-width="0" stroke-linejoin="miter"></polygon><path class="outline" fill="transparent" d="M598.8391218185425,166.20000000000002L332.2207899093628,166.20000000000002L332.2207899093628,194.00000000000003L598.8391218185425,194.00000000000003Z"></path><g><text x="465.52995586395264" font-family="Courier New,Liberation Mono,monospace" font-size="8" line-height="1.3" text-anchor="middle" y="176.20000000000002">Call manager.init()</text><text x="465.52995586395264" font-family="Courier New,Liberation Mono,monospace" font-size="8" line-height="1.3" text-anchor="middle" y="186.60000000000002">to initialize the scheduler</text></g></g><g class="region"><g><rect fill="#FFFFFF" stroke="#000000" stroke-width="1" height="23.6" width="80.80475616455078" x="651.2414999008179" y="202.00000000000003"></rect><g><text x="691.6438779830933" font-family="Courier New,Liberation Mono,monospace" font-size="12" line-height="1.3" text-anchor="middle" y="218.00000000000003">scheduler</text></g></g><rect class="outline" fill="transparent" height="23.6" width="80.80475616455078" x="651.2414999008179" y="202.00000000000003"></rect></g><g class="region"><path d="M332.2207899093628 251.00000000000003L689.1438779830933 251.00000000000003" fill="none" stroke="#000000" stroke-width="1"></path><polygon points="687.1438779830933 255.00000000000003 691.1438779830933 251.00000000000003 687.1438779830933 247.00000000000003" fill="#000000" stroke-width="0" stroke-linejoin="miter"></polygon><path class="outline" fill="transparent" d="M332.2207899093628,237.60000000000002L691.6438779830933,237.60000000000002L691.6438779830933,255.00000000000003L332.2207899093628,255.00000000000003Z"></path><g><text x="511.932333946228" font-family="Courier New,Liberation Mono,monospace" font-size="8" line-height="1.3" text-anchor="middle" y="247.60000000000002">Create Scheduler service worker</text></g></g><g class="region"><rect class="outline" fill="transparent" height="50.19999999999999" width="156.0105743408203" x="691.6438779830933" y="263"></rect><g><text x="695.6438779830933" font-family="Courier New,Liberation Mono,monospace" font-size="8" line-height="1.3" y="273">Calls init method, pulling out</text><text x="695.6438779830933" font-family="Courier New,Liberation Mono,monospace" font-size="8" line-height="1.3" y="283.4">all task which</text><text x="695.6438779830933" font-family="Courier New,Liberation Mono,monospace" font-size="8" line-height="1.3" y="293.79999999999995">are not marked as ended=true</text></g><path d="M691.6438779830933 297.2L843.6544523239136 297.2A4 4 0 0 1 847.6544523239136 301.2L847.6544523239136 305.2A4 4 0 0 1 843.6544523239136 309.2L694.1438779830933 309.2" fill="none" stroke="#000000" stroke-width="1"></path><polygon points="696.1438779830933 305.2 692.1438779830933 309.2 696.1438779830933 313.2" fill="#000000" stroke-width="0" stroke-linejoin="miter"></polygon></g><g class="region"><path d="M691.6438779830933 349L334.7207899093628 349" fill="none" stroke="#000000" stroke-width="1"></path><polygon points="336.7207899093628 345 332.7207899093628 349 336.7207899093628 353" fill="#000000" stroke-width="0" stroke-linejoin="miter"></polygon><path class="outline" fill="transparent" d="M691.6438779830933,325.2L332.2207899093628,325.2L332.2207899093628,353L691.6438779830933,353Z"></path><g><text x="511.932333946228" font-family="Courier New,Liberation Mono,monospace" font-size="8" line-height="1.3" text-anchor="middle" y="335.2">call task with current</text><text x="511.932333946228" font-family="Courier New,Liberation Mono,monospace" font-size="8" line-height="1.3" text-anchor="middle" y="345.59999999999997">state stored in task manager</text></g></g><g class="region expanded"><rect class="outline" fill="transparent" height="14.4" width="383.42308807373047" x="320.2207899093628" y="375"></rect><g><text x="328.2207899093628" font-family="Courier New,Liberation Mono,monospace" font-size="8" line-height="1.3" text-anchor="left" y="385">Creating task</text></g></g><g class="region"><path d="M598.8391218185425 405.79999999999995L334.7207899093628 405.79999999999995" fill="none" stroke="#000000" stroke-width="1"></path><polygon points="336.7207899093628 401.79999999999995 332.7207899093628 405.79999999999995 336.7207899093628 409.79999999999995" fill="#000000" stroke-width="0" stroke-linejoin="miter"></polygon><path class="outline" fill="transparent" d="M598.8391218185425,392.4L332.2207899093628,392.4L332.2207899093628,409.79999999999995L598.8391218185425,409.79999999999995Z"></path><g><text x="465.52995586395264" font-family="Courier New,Liberation Mono,monospace" font-size="8" line-height="1.3" text-anchor="middle" y="402.4">create_task(TaskClass, init_data and all other info)</text></g></g><g class="region"><path d="M332.2207899093628 431.19999999999993L689.1438779830933 431.19999999999993" fill="none" stroke="#000000" stroke-width="1"></path><polygon points="687.1438779830933 435.19999999999993 691.1438779830933 431.19999999999993 687.1438779830933 427.19999999999993" fill="#000000" stroke-width="0" stroke-linejoin="miter"></polygon><path class="outline" fill="transparent" d="M332.2207899093628,417.79999999999995L691.6438779830933,417.79999999999995L691.6438779830933,435.19999999999993L332.2207899093628,435.19999999999993Z"></path><g><text x="511.932333946228" font-family="Courier New,Liberation Mono,monospace" font-size="8" line-height="1.3" text-anchor="middle" y="427.79999999999995">record initiation</text></g></g><g class="region"><path d="M691.6438779830933 456.5999999999999L334.7207899093628 456.5999999999999" fill="none" stroke="#000000" stroke-width="1"></path><polygon points="336.7207899093628 452.5999999999999 332.7207899093628 456.5999999999999 336.7207899093628 460.5999999999999" fill="#000000" stroke-width="0" stroke-linejoin="miter"></polygon><path class="outline" fill="transparent" d="M691.6438779830933,443.19999999999993L332.2207899093628,443.19999999999993L332.2207899093628,460.5999999999999L691.6438779830933,460.5999999999999Z"></path><g><text x="511.932333946228" font-family="Courier New,Liberation Mono,monospace" font-size="8" line-height="1.3" text-anchor="middle" y="453.19999999999993">Instantiate the task and run.</text></g></g><g class="region expanded"><rect class="outline" fill="transparent" height="14.4" width="669.2428207397461" x="34.40105724334717" y="482.5999999999999"></rect><g><text x="42.40105724334717" font-family="Courier New,Liberation Mono,monospace" font-size="8" line-height="1.3" text-anchor="left" y="492.5999999999999">Run task</text></g></g><g class="region"><path d="M691.6438779830933 513.3999999999999L334.7207899093628 513.3999999999999" fill="none" stroke="#000000" stroke-width="1"></path><polygon points="336.7207899093628 509.39999999999986 332.7207899093628 513.3999999999999 336.7207899093628 517.3999999999999" fill="#000000" stroke-width="0" stroke-linejoin="miter"></polygon><path class="outline" fill="transparent" d="M691.6438779830933,499.9999999999999L332.2207899093628,499.9999999999999L332.2207899093628,517.3999999999999L691.6438779830933,517.3999999999999Z"></path><g><text x="511.932333946228" font-family="Courier New,Liberation Mono,monospace" font-size="8" line-height="1.3" text-anchor="middle" y="509.9999999999999">Provides current state of Task</text></g></g><g class="region"><path d="M332.2207899093628 538.7999999999998L48.90105724334717 538.7999999999998" fill="none" stroke="#000000" stroke-width="1"></path><polygon points="50.90105724334717 534.7999999999998 46.90105724334717 538.7999999999998 50.90105724334717 542.7999999999998" fill="#000000" stroke-width="0" stroke-linejoin="miter"></polygon><path class="outline" fill="transparent" d="M332.2207899093628,525.3999999999999L46.40105724334717,525.3999999999999L46.40105724334717,542.7999999999998L332.2207899093628,542.7999999999998Z"></path><g><text x="189.31092357635498" font-family="Courier New,Liberation Mono,monospace" font-size="8" line-height="1.3" text-anchor="middle" y="535.3999999999999">Instantiate and run , by calling task.run(current-state)</text></g></g><g class="region"><path d="M332.2207899093628 604.1999999999998L48.90105724334717 604.1999999999998" fill="none" stroke="#000000" stroke-width="1"></path><polygon points="50.90105724334717 600.1999999999998 46.90105724334717 604.1999999999998 50.90105724334717 608.1999999999998" fill="#000000" stroke-width="0" stroke-linejoin="miter"></polygon><path class="outline" fill="transparent" d="M332.2207899093628,590.7999999999998L46.40105724334717,590.7999999999998L46.40105724334717,608.1999999999998L332.2207899093628,608.1999999999998Z"></path><g><text x="189.31092357635498" font-family="Courier New,Liberation Mono,monospace" font-size="8" line-height="1.3" text-anchor="middle" y="600.7999999999998">will keep runing the task</text></g></g><g class="region"><path d="M46.40105724334717 629.5999999999998L329.7207899093628 629.5999999999998" fill="none" stroke="#000000" stroke-width="1"></path><polygon points="327.7207899093628 633.5999999999998 331.7207899093628 629.5999999999998 327.7207899093628 625.5999999999998" fill="#000000" stroke-width="0" stroke-linejoin="miter"></polygon><path class="outline" fill="transparent" d="M46.40105724334717,616.1999999999998L332.2207899093628,616.1999999999998L332.2207899093628,633.5999999999998L46.40105724334717,633.5999999999998Z"></path><g><text x="189.31092357635498" font-family="Courier New,Liberation Mono,monospace" font-size="8" line-height="1.3" text-anchor="middle" y="626.1999999999998">record phase</text></g></g><g class="region"><path d="M332.2207899093628 654.9999999999998L689.1438779830933 654.9999999999998" fill="none" stroke="#000000" stroke-width="1"></path><polygon points="687.1438779830933 658.9999999999998 691.1438779830933 654.9999999999998 687.1438779830933 650.9999999999998" fill="#000000" stroke-width="0" stroke-linejoin="miter"></polygon><path class="outline" fill="transparent" d="M332.2207899093628,641.5999999999998L691.6438779830933,641.5999999999998L691.6438779830933,658.9999999999998L332.2207899093628,658.9999999999998Z"></path><g><text x="511.932333946228" font-family="Courier New,Liberation Mono,monospace" font-size="8" line-height="1.3" text-anchor="middle" y="651.5999999999998">delegate phase received from task</text></g></g><g class="region"><g><rect fill="#FFFFFF" stroke="#000000" stroke-width="1" height="23.6" width="44.802114486694336" x="24" y="680.9999999999998"></rect><g><text x="46.40105724334717" font-family="Courier New,Liberation Mono,monospace" font-size="12" line-height="1.3" text-anchor="middle" y="696.9999999999998">task</text></g></g><rect class="outline" fill="transparent" height="23.6" width="44.802114486694336" x="24" y="680.9999999999998"></rect></g><g class="region"><g><rect fill="#FFFFFF" stroke="#000000" stroke-width="1" height="23.6" width="66.40370178222656" x="299.0189390182495" y="680.9999999999998"></rect><g><text x="332.2207899093628" font-family="Courier New,Liberation Mono,monospace" font-size="12" line-height="1.3" text-anchor="middle" y="696.9999999999998">manager</text></g></g><rect class="outline" fill="transparent" height="23.6" width="66.40370178222656" x="299.0189390182495" y="680.9999999999998"></rect></g><g class="region"><g><rect fill="#FFFFFF" stroke="#000000" stroke-width="1" height="23.6" width="80.80475616455078" x="558.4367437362671" y="680.9999999999998"></rect><g><text x="598.8391218185425" font-family="Courier New,Liberation Mono,monospace" font-size="12" line-height="1.3" text-anchor="middle" y="696.9999999999998">user-code</text></g></g><rect class="outline" fill="transparent" height="23.6" width="80.80475616455078" x="558.4367437362671" y="680.9999999999998"></rect></g><g class="region"><g><rect fill="#FFFFFF" stroke="#000000" stroke-width="1" height="23.6" width="80.80475616455078" x="651.2414999008179" y="680.9999999999998"></rect><g><text x="691.6438779830933" font-family="Courier New,Liberation Mono,monospace" font-size="12" line-height="1.3" text-anchor="middle" y="696.9999999999998">scheduler</text></g></g><rect class="outline" fill="transparent" height="23.6" width="80.80475616455078" x="651.2414999008179" y="680.9999999999998"></rect></g></g></g></svg>